<svg xmlns="http://www.w3.org/2000/svg" viewBox="0 0 960 780" width="960" height="780" font-family="system-ui, sans-serif" font-size="12">
<rect width="960" height="780" fill="#ffffff"/>
<text x="56" y="22" font-size="15" font-weight="600" fill="#1f2328">Baseline: main at v0.3.0</text>
<g transform="translate(56, 40)">
<line x1="0" x2="22" y1="0" y2="0" stroke="#d6336c" stroke-width="2.5"/><text x="28" y="4" fill="#1f2328">main (3 runs)</text>
<text x="520" y="4" fill="#59636e">line: median, shading: lowest to highest run. PSS + swap, MB</text>
</g>
<text x="56" y="74" font-weight="600" fill="#1f2328">Core (Rust, mpv)</text>
<rect x="57.9742641509434" y="82" width="83.7903396226415" height="190" fill="#f2f4f7"/>
<text x="61.9742641509434" y="96" fill="#59636e" font-size="11">idle</text>
<text x="145.7646037735849" y="109" fill="#59636e" font-size="11">browse</text>
<rect x="351.3270188679245" y="82" width="5.977245283018874" height="190" fill="#f2f4f7"/>
<text x="355.3270188679245" y="96" fill="#59636e" font-size="11">long-playlist</text>
<text x="361.30426415094337" y="109" fill="#59636e" font-size="11">playback</text>
<rect x="779.2815849056603" y="82" width="164.71841509433966" height="190" fill="#f2f4f7"/>
<text x="783.2815849056603" y="96" fill="#59636e" font-size="11">idle-end</text>
<line x1="56" x2="944" y1="272" y2="272" stroke="#d0d7de" stroke-width="1"/>
<text x="50" y="276" text-anchor="end" fill="#59636e">0</text>
<line x1="56" x2="944" y1="208.66666666666669" y2="208.66666666666669" stroke="#d0d7de" stroke-width="0.5"/>
<text x="50" y="212.66666666666669" text-anchor="end" fill="#59636e">100</text>
<line x1="56" x2="944" y1="145.33333333333334" y2="145.33333333333334" stroke="#d0d7de" stroke-width="0.5"/>
<text x="50" y="149.33333333333334" text-anchor="end" fill="#59636e">200</text>
<line x1="56" x2="944" y1="82" y2="82" stroke="#d0d7de" stroke-width="0.5"/>
<text x="50" y="86" text-anchor="end" fill="#59636e">300</text>
<polygon points="56.0,187.6 58.8,187.6 61.6,187.6 64.4,187.6 67.2,187.6 70.0,187.6 72.8,187.6 75.5,187.6 78.3,187.6 81.1,187.6 83.9,187.6 86.7,187.6 89.5,187.6 92.3,187.6 95.1,187.6 97.9,187.6 100.7,187.6 103.5,187.2 106.3,187.2 109.1,187.2 111.8,187.2 114.6,187.2 117.4,187.2 120.2,187.2 123.0,187.2 125.8,187.3 128.6,187.2 131.4,187.2 134.2,187.2 137.0,187.2 139.8,187.2 142.6,187.2 145.4,186.4 148.2,185.0 150.9,185.2 153.7,184.0 156.5,184.1 159.3,181.2 162.1,181.5 164.9,181.5 167.7,181.1 170.5,181.3 173.3,180.4 176.1,180.6 178.9,180.6 181.7,179.8 184.5,180.0 187.2,179.8 190.0,179.9 192.8,180.0 195.6,179.9 198.4,180.0 201.2,179.6 204.0,179.8 206.8,179.9 209.6,179.4 212.4,179.5 215.2,179.4 218.0,179.5 220.8,179.5 223.5,179.6 226.3,179.7 229.1,179.6 231.9,179.6 234.7,179.7 237.5,179.7 240.3,179.7 243.1,179.6 245.9,179.7 248.7,179.7 251.5,179.6 254.3,179.7 257.1,179.6 259.8,179.7 262.6,179.7 265.4,179.6 268.2,179.7 271.0,179.5 273.8,179.5 276.6,179.5 279.4,179.5 282.2,179.5 285.0,178.0 287.8,178.1 290.6,178.1 293.4,177.3 296.2,177.4 298.9,175.8 301.7,175.9 304.5,176.0 307.3,174.8 310.1,175.0 312.9,173.3 315.7,173.4 318.5,173.5 321.3,172.4 324.1,172.5 326.9,172.3 329.7,172.4 332.5,172.5 335.2,172.3 338.0,172.5 340.8,172.3 343.6,172.4 346.4,172.5 349.2,172.3 352.0,172.5 354.8,172.3 357.6,171.4 360.4,171.5 363.2,169.4 366.0,166.8 368.8,129.0 371.5,129.0 374.3,129.0 377.1,129.1 379.9,129.1 382.7,129.1 385.5,129.1 388.3,127.5 391.1,127.4 393.9,127.4 396.7,127.4 399.5,127.4 402.3,127.4 405.1,127.4 407.8,127.4 410.6,118.4 413.4,118.4 416.2,118.4 419.0,118.4 421.8,118.4 424.6,118.3 427.4,118.3 430.2,113.9 433.0,113.9 435.8,113.9 438.6,113.9 441.4,113.9 444.2,113.9 446.9,113.9 449.7,113.7 452.5,113.6 455.3,113.6 458.1,113.6 460.9,113.6 463.7,113.6 466.5,113.6 469.3,113.6 472.1,113.6 474.9,113.6 477.7,113.6 480.5,113.6 483.2,113.6 486.0,113.6 488.8,113.6 491.6,113.6 494.4,113.6 497.2,113.6 500.0,113.6 502.8,113.6 505.6,113.6 508.4,113.6 511.2,113.6 514.0,107.5 516.8,107.5 519.5,107.5 522.3,107.5 525.1,107.5 527.9,107.5 530.7,107.5 533.5,107.5 536.3,106.5 539.1,106.2 541.9,106.2 544.7,106.2 547.5,106.2 550.3,106.2 553.1,106.5 555.8,106.2 558.6,106.2 561.4,106.2 564.2,106.2 567.0,106.2 569.8,106.2 572.6,106.2 575.4,105.9 578.2,105.9 581.0,105.9 583.8,105.9 586.6,105.9 589.4,105.9 592.2,105.9 594.9,105.9 597.7,105.9 600.5,105.9 603.3,105.9 606.1,105.9 608.9,105.9 611.7,105.9 614.5,105.9 617.3,105.2 620.1,105.2 622.9,105.2 625.7,105.2 628.5,105.2 631.2,105.2 634.0,105.2 636.8,105.2 639.6,105.2 642.4,105.2 645.2,105.2 648.0,105.2 650.8,105.2 653.6,105.2 656.4,105.2 659.2,104.7 662.0,104.7 664.8,104.7 667.5,104.7 670.3,104.7 673.1,104.7 675.9,104.7 678.7,104.7 681.5,104.7 684.3,104.7 687.1,104.7 689.9,104.7 692.7,104.7 695.5,104.7 698.3,104.2 701.1,104.3 703.8,104.3 706.6,104.3 709.4,104.3 712.2,104.3 715.0,104.3 717.8,104.3 720.6,100.2 723.4,100.2 726.2,100.2 729.0,100.2 731.8,100.2 734.6,100.2 737.4,100.2 740.2,100.2 742.9,99.9 745.7,99.9 748.5,99.9 751.3,99.9 754.1,99.9 756.9,99.9 759.7,99.9 762.5,99.9 765.3,99.9 768.1,99.9 770.9,99.9 773.7,99.9 776.5,99.9 779.2,99.9 782.0,99.8 784.8,99.4 787.6,99.4 790.4,99.4 793.2,99.4 796.0,99.4 798.8,99.4 801.6,99.4 804.4,99.4 807.2,99.4 810.0,99.4 812.8,99.4 815.5,99.4 818.3,99.4 821.1,99.4 823.9,99.4 826.7,99.4 829.5,99.4 832.3,99.4 835.1,99.4 837.9,99.4 840.7,99.4 843.5,99.4 846.3,99.4 849.1,99.4 851.8,99.4 854.6,99.4 857.4,99.4 860.2,99.4 863.0,99.4 865.8,99.4 868.6,99.4 871.4,99.4 874.2,99.4 877.0,99.4 879.8,99.4 882.6,99.4 885.4,99.4 888.2,99.4 890.9,99.4 893.7,99.4 896.5,99.4 899.3,99.4 902.1,99.4 904.9,99.4 907.7,99.4 910.5,99.4 913.3,99.4 916.1,99.4 918.9,99.4 921.7,99.4 924.5,99.4 927.2,99.4 930.0,99.4 932.8,99.4 935.6,99.4 938.4,99.4 941.2,99.4 944.0,97.5 944.0,103.2 941.2,104.3 938.4,104.3 935.6,104.3 932.8,104.3 930.0,104.3 927.2,104.3 924.5,104.3 921.7,103.2 918.9,103.2 916.1,103.2 913.3,103.2 910.5,103.2 907.7,103.2 904.9,103.2 902.1,103.2 899.3,103.2 896.5,103.2 893.7,103.2 890.9,103.2 888.2,103.2 885.4,103.2 882.6,103.2 879.8,103.2 877.0,103.2 874.2,103.2 871.4,103.2 868.6,103.2 865.8,103.2 863.0,103.2 860.2,103.2 857.4,103.2 854.6,103.2 851.8,103.2 849.1,103.2 846.3,103.2 843.5,103.2 840.7,103.2 837.9,103.2 835.1,103.2 832.3,103.2 829.5,103.2 826.7,103.2 823.9,103.2 821.1,103.2 818.3,103.2 815.5,103.2 812.8,103.2 810.0,103.2 807.2,103.2 804.4,103.2 801.6,103.2 798.8,103.2 796.0,103.2 793.2,103.2 790.4,103.2 787.6,103.2 784.8,103.2 782.0,103.2 779.2,103.2 776.5,103.2 773.7,103.2 770.9,103.2 768.1,103.2 765.3,103.2 762.5,103.2 759.7,105.9 756.9,105.9 754.1,105.9 751.3,105.9 748.5,105.9 745.7,105.9 742.9,105.9 740.2,105.8 737.4,106.0 734.6,106.0 731.8,106.0 729.0,106.0 726.2,106.0 723.4,106.0 720.6,105.9 717.8,106.8 715.0,106.8 712.2,106.8 709.4,106.8 706.6,106.8 703.8,106.8 701.1,106.8 698.3,107.8 695.5,107.8 692.7,107.8 689.9,107.8 687.1,107.8 684.3,107.8 681.5,107.8 678.7,107.8 675.9,107.9 673.1,107.9 670.3,107.9 667.5,107.9 664.8,107.9 662.0,107.9 659.2,107.9 656.4,107.9 653.6,107.9 650.8,107.9 648.0,107.9 645.2,107.9 642.4,107.9 639.6,107.9 636.8,107.8 634.0,108.0 631.2,107.6 628.5,107.6 625.7,107.6 622.9,107.6 620.1,107.6 617.3,107.6 614.5,107.6 611.7,107.6 608.9,107.6 606.1,107.6 603.3,107.6 600.5,107.6 597.7,107.6 594.9,107.6 592.2,107.6 589.4,107.6 586.6,107.6 583.8,107.6 581.0,107.6 578.2,107.6 575.4,107.6 572.6,108.4 569.8,108.4 567.0,108.4 564.2,108.4 561.4,108.4 558.6,108.4 555.8,108.4 553.1,108.4 550.3,108.1 547.5,108.1 544.7,108.1 541.9,108.1 539.1,108.1 536.3,108.4 533.5,109.7 530.7,109.7 527.9,109.7 525.1,109.7 522.3,109.7 519.5,109.7 516.8,109.7 514.0,109.7 511.2,115.3 508.4,115.3 505.6,115.3 502.8,115.3 500.0,115.3 497.2,115.3 494.4,115.3 491.6,117.3 488.8,117.3 486.0,117.3 483.2,117.3 480.5,117.3 477.7,117.3 474.9,117.3 472.1,117.2 469.3,117.6 466.5,117.6 463.7,117.6 460.9,117.5 458.1,117.5 455.3,117.5 452.5,117.5 449.7,117.5 446.9,117.5 444.2,117.5 441.4,117.6 438.6,117.6 435.8,117.6 433.0,117.6 430.2,118.3 427.4,120.5 424.6,120.5 421.8,120.5 419.0,120.5 416.2,120.5 413.4,120.5 410.6,120.5 407.8,129.7 405.1,129.7 402.3,129.7 399.5,129.7 396.7,129.7 393.9,129.7 391.1,129.7 388.3,129.7 385.5,131.2 382.7,131.2 379.9,131.2 377.1,131.2 374.3,131.2 371.5,131.2 368.8,131.2 366.0,172.0 363.2,173.4 360.4,174.0 357.6,173.9 354.8,174.6 352.0,174.8 349.2,174.6 346.4,174.8 343.6,174.7 340.8,174.4 338.0,175.5 335.2,175.3 332.5,175.5 329.7,175.4 326.9,175.3 324.1,176.2 321.3,176.1 318.5,177.2 315.7,177.1 312.9,177.2 310.1,177.2 307.3,177.1 304.5,177.6 301.7,177.6 298.9,178.3 296.2,178.3 293.4,178.2 290.6,179.5 287.8,179.4 285.0,179.3 282.2,180.9 279.4,180.9 276.6,180.9 273.8,180.9 271.0,180.6 268.2,181.4 265.4,181.4 262.6,181.4 259.8,181.3 257.1,181.4 254.3,181.4 251.5,181.4 248.7,181.4 245.9,181.4 243.1,181.3 240.3,181.4 237.5,181.3 234.7,181.4 231.9,181.4 229.1,181.3 226.3,181.6 223.5,181.5 220.8,181.5 218.0,181.4 215.2,181.5 212.4,181.5 209.6,181.4 206.8,181.5 204.0,181.3 201.2,181.1 198.4,182.0 195.6,181.9 192.8,182.4 190.0,182.2 187.2,182.1 184.5,182.3 181.7,182.2 178.9,182.4 176.1,182.2 173.3,183.1 170.5,183.1 167.7,183.0 164.9,183.2 162.1,183.1 159.3,184.8 156.5,184.7 153.7,184.5 150.9,185.9 148.2,185.7 145.4,187.6 142.6,187.6 139.8,187.6 137.0,187.6 134.2,187.6 131.4,187.6 128.6,187.6 125.8,187.6 123.0,187.6 120.2,187.6 117.4,187.6 114.6,187.7 111.8,187.7 109.1,187.7 106.3,187.7 103.5,187.7 100.7,188.0 97.9,188.0 95.1,188.0 92.3,188.0 89.5,188.0 86.7,188.0 83.9,188.0 81.1,188.0 78.3,188.0 75.5,188.0 72.8,188.0 70.0,188.0 67.2,188.0 64.4,188.0 61.6,188.1 58.8,188.1 56.0,188.1" fill="#d6336c" fill-opacity="0.18"/>
<polyline points="56.0,187.6 58.8,187.6 61.6,187.6 64.4,187.6 67.2,187.6 70.0,187.6 72.8,187.6 75.5,187.6 78.3,187.6 81.1,187.6 83.9,187.6 86.7,187.6 89.5,187.6 92.3,187.6 95.1,187.6 97.9,187.6 100.7,187.6 103.5,187.3 106.3,187.3 109.1,187.3 111.8,187.3 114.6,187.3 117.4,187.3 120.2,187.3 123.0,187.3 125.8,187.3 128.6,187.3 131.4,187.3 134.2,187.3 137.0,187.3 139.8,187.3 142.6,187.3 145.4,186.7 148.2,185.2 150.9,185.4 153.7,184.3 156.5,184.4 159.3,181.7 162.1,181.8 164.9,181.9 167.7,181.4 170.5,181.5 173.3,180.9 176.1,181.1 178.9,181.2 181.7,180.6 184.5,180.7 187.2,180.6 190.0,180.7 192.8,180.8 195.6,180.5 198.4,180.6 201.2,180.0 204.0,180.2 206.8,180.3 209.6,179.7 212.4,179.8 215.2,179.7 218.0,179.8 220.8,179.8 223.5,179.8 226.3,179.9 229.1,179.9 231.9,179.9 234.7,179.9 237.5,179.8 240.3,179.9 243.1,179.8 245.9,179.9 248.7,179.9 251.5,179.8 254.3,179.9 257.1,179.8 259.8,179.9 262.6,179.9 265.4,179.9 268.2,179.9 271.0,179.7 273.8,179.7 276.6,179.7 279.4,179.6 282.2,179.6 285.0,178.3 287.8,178.4 290.6,178.4 293.4,178.2 296.2,178.3 298.9,177.4 301.7,177.2 304.5,177.3 307.3,175.6 310.1,175.7 312.9,175.5 315.7,175.6 318.5,175.7 321.3,175.4 324.1,175.5 326.9,174.6 329.7,174.7 332.5,174.8 335.2,174.7 338.0,174.8 340.8,173.5 343.6,173.6 346.4,173.7 349.2,173.5 352.0,173.7 354.8,173.7 357.6,172.5 360.4,172.8 363.2,172.0 366.0,171.6 368.8,129.7 371.5,129.8 374.3,129.8 377.1,129.9 379.9,129.9 382.7,129.9 385.5,129.9 388.3,127.8 391.1,127.5 393.9,127.5 396.7,127.5 399.5,127.5 402.3,127.5 405.1,127.5 407.8,127.5 410.6,119.3 413.4,119.3 416.2,119.3 419.0,119.3 421.8,119.3 424.6,119.3 427.4,119.3 430.2,116.9 433.0,116.0 435.8,116.0 438.6,116.0 441.4,116.0 444.2,116.0 446.9,116.0 449.7,116.0 452.5,115.8 455.3,115.8 458.1,115.8 460.9,115.8 463.7,115.8 466.5,115.8 469.3,115.8 472.1,115.8 474.9,115.8 477.7,115.8 480.5,115.8 483.2,115.8 486.0,115.8 488.8,115.8 491.6,115.8 494.4,115.0 497.2,115.0 500.0,115.0 502.8,115.0 505.6,115.0 508.4,115.0 511.2,115.0 514.0,108.9 516.8,108.9 519.5,108.9 522.3,108.9 525.1,108.9 527.9,108.9 530.7,108.9 533.5,108.4 536.3,107.5 539.1,107.2 541.9,107.2 544.7,107.2 547.5,107.2 550.3,107.2 553.1,107.5 555.8,106.5 558.6,106.5 561.4,106.5 564.2,106.5 567.0,106.5 569.8,106.5 572.6,106.5 575.4,106.2 578.2,106.2 581.0,106.2 583.8,106.2 586.6,106.2 589.4,106.2 592.2,106.2 594.9,106.1 597.7,106.2 600.5,106.2 603.3,106.2 606.1,106.2 608.9,106.2 611.7,106.2 614.5,106.2 617.3,105.8 620.1,105.8 622.9,105.8 625.7,105.8 628.5,105.8 631.2,105.8 634.0,105.8 636.8,105.7 639.6,105.7 642.4,105.7 645.2,105.7 648.0,105.7 650.8,105.7 653.6,105.7 656.4,105.7 659.2,105.7 662.0,105.7 664.8,105.7 667.5,105.7 670.3,105.7 673.1,105.7 675.9,105.7 678.7,105.6 681.5,105.6 684.3,105.6 687.1,105.6 689.9,105.6 692.7,105.6 695.5,105.6 698.3,104.7 701.1,104.7 703.8,104.7 706.6,104.7 709.4,104.7 712.2,104.7 715.0,104.7 717.8,104.7 720.6,104.3 723.4,104.3 726.2,104.3 729.0,104.3 731.8,104.3 734.6,104.3 737.4,104.3 740.2,104.2 742.9,104.3 745.7,104.3 748.5,104.3 751.3,104.3 754.1,104.2 756.9,104.2 759.7,104.2 762.5,102.9 765.3,102.9 768.1,102.9 770.9,102.9 773.7,102.9 776.5,102.9 779.2,102.9 782.0,102.9 784.8,102.9 787.6,102.9 790.4,102.9 793.2,102.9 796.0,102.9 798.8,102.9 801.6,102.9 804.4,102.9 807.2,102.9 810.0,102.9 812.8,102.9 815.5,102.9 818.3,102.9 821.1,102.9 823.9,102.9 826.7,102.9 829.5,102.9 832.3,102.9 835.1,102.9 837.9,102.9 840.7,102.9 843.5,102.9 846.3,102.9 849.1,102.9 851.8,102.9 854.6,102.9 857.4,102.9 860.2,102.9 863.0,102.9 865.8,102.9 868.6,102.9 871.4,102.9 874.2,102.9 877.0,102.9 879.8,102.9 882.6,102.9 885.4,102.9 888.2,102.9 890.9,102.9 893.7,102.9 896.5,102.9 899.3,102.9 902.1,102.9 904.9,102.9 907.7,102.9 910.5,102.9 913.3,102.9 916.1,102.9 918.9,103.0 921.7,102.9 924.5,103.2 927.2,103.2 930.0,103.2 932.8,103.2 935.6,103.2 938.4,103.2 941.2,103.2 944.0,99.4" fill="none" stroke="#d6336c" stroke-width="2"/>
<text x="56" y="288" text-anchor="middle" fill="#59636e">0 min</text>
<text x="223.54716981132077" y="288" text-anchor="middle" fill="#59636e">2 min</text>
<text x="391.09433962264154" y="288" text-anchor="middle" fill="#59636e">4 min</text>
<text x="558.6415094339623" y="288" text-anchor="middle" fill="#59636e">6 min</text>
<text x="726.1886792452831" y="288" text-anchor="middle" fill="#59636e">8 min</text>
<text x="893.7358490566038" y="288" text-anchor="middle" fill="#59636e">10 min</text>
<text x="56" y="310" font-weight="600" fill="#1f2328">Web process (UI, engine worker, BotGuard)</text>
<rect x="57.9742641509434" y="318" width="83.7903396226415" height="190" fill="#f2f4f7"/>
<rect x="351.3270188679245" y="318" width="5.977245283018874" height="190" fill="#f2f4f7"/>
<rect x="779.2815849056603" y="318" width="164.71841509433966" height="190" fill="#f2f4f7"/>
<line x1="56" x2="944" y1="508" y2="508" stroke="#d0d7de" stroke-width="1"/>
<text x="50" y="512" text-anchor="end" fill="#59636e">0</text>
<line x1="56" x2="944" y1="444.6666666666667" y2="444.6666666666667" stroke="#d0d7de" stroke-width="0.5"/>
<text x="50" y="448.6666666666667" text-anchor="end" fill="#59636e">200</text>
<line x1="56" x2="944" y1="381.33333333333337" y2="381.33333333333337" stroke="#d0d7de" stroke-width="0.5"/>
<text x="50" y="385.33333333333337" text-anchor="end" fill="#59636e">400</text>
<line x1="56" x2="944" y1="318" y2="318" stroke="#d0d7de" stroke-width="0.5"/>
<text x="50" y="322" text-anchor="end" fill="#59636e">600</text>
<polygon points="56.0,449.9 58.8,449.9 61.6,449.9 64.4,451.7 67.2,452.2 70.0,452.2 72.8,452.2 75.5,452.5 78.3,454.4 81.1,454.4 83.9,454.4 86.7,454.4 89.5,454.4 92.3,454.4 95.1,454.4 97.9,454.4 100.7,454.4 103.5,454.4 106.3,454.4 109.1,454.4 111.8,454.4 114.6,454.4 117.4,454.4 120.2,454.4 123.0,454.4 125.8,454.4 128.6,454.4 131.4,454.4 134.2,454.4 137.0,454.4 139.8,454.4 142.6,454.4 145.4,445.2 148.2,433.6 150.9,434.1 153.7,418.4 156.5,419.1 159.3,401.7 162.1,403.1 164.9,403.5 167.7,393.3 170.5,393.9 173.3,386.4 176.1,386.1 178.9,386.5 181.7,384.8 184.5,385.9 187.2,377.3 190.0,384.6 192.8,384.6 195.6,380.8 198.4,381.4 201.2,370.6 204.0,380.8 206.8,381.0 209.6,379.4 212.4,381.9 215.2,384.5 218.0,384.7 220.8,384.8 223.5,384.8 226.3,385.0 229.1,382.8 231.9,382.9 234.7,383.0 237.5,385.1 240.3,398.8 243.1,399.8 245.9,399.9 248.7,399.9 251.5,399.1 254.3,399.4 257.1,398.2 259.8,398.4 262.6,398.4 265.4,396.6 268.2,396.9 271.0,398.1 273.8,398.2 276.6,398.2 279.4,398.0 282.2,398.0 285.0,395.4 287.8,395.6 290.6,396.8 293.4,396.0 296.2,396.3 298.9,393.6 301.7,395.0 304.5,395.0 307.3,393.6 310.1,394.0 312.9,390.6 315.7,393.3 318.5,393.5 321.3,399.5 324.1,399.8 326.9,393.8 329.7,395.6 332.5,395.6 335.2,394.7 338.0,394.9 340.8,391.7 343.6,396.1 346.4,396.1 349.2,393.9 352.0,394.1 354.8,390.6 357.6,384.3 360.4,388.9 363.2,383.6 366.0,343.9 368.8,330.4 371.5,330.2 374.3,330.1 377.1,327.9 379.9,327.4 382.7,330.4 385.5,330.1 388.3,329.5 391.1,339.6 393.9,339.4 396.7,339.7 399.5,339.2 402.3,339.9 405.1,339.8 407.8,339.5 410.6,337.2 413.4,337.3 416.2,336.9 419.0,336.0 421.8,336.7 424.6,341.3 427.4,341.6 430.2,340.2 433.0,341.2 435.8,340.4 438.6,340.9 441.4,342.6 444.2,344.0 446.9,345.6 449.7,345.7 452.5,346.6 455.3,345.8 458.1,346.6 460.9,345.9 463.7,346.2 466.5,346.1 469.3,346.0 472.1,343.9 474.9,345.3 477.7,345.2 480.5,345.0 483.2,344.9 486.0,344.7 488.8,341.7 491.6,343.5 494.4,343.6 497.2,343.5 500.0,343.5 502.8,343.3 505.6,343.1 508.4,343.0 511.2,342.9 514.0,341.1 516.8,341.0 519.5,339.5 522.3,341.0 525.1,341.0 527.9,341.2 530.7,340.7 533.5,339.7 536.3,340.2 539.1,338.8 541.9,339.9 544.7,339.8 547.5,339.8 550.3,339.8 553.1,339.3 555.8,383.6 558.6,383.4 561.4,383.3 564.2,383.1 567.0,382.9 569.8,382.5 572.6,382.7 575.4,389.1 578.2,389.0 581.0,389.0 583.8,388.2 586.6,388.7 589.4,387.4 592.2,388.2 594.9,388.0 597.7,387.8 600.5,387.6 603.3,387.5 606.1,387.5 608.9,387.3 611.7,387.3 614.5,386.8 617.3,387.0 620.1,386.2 622.9,386.0 625.7,386.5 628.5,386.4 631.2,386.1 634.0,386.2 636.8,385.7 639.6,385.5 642.4,385.4 645.2,385.3 648.0,385.2 650.8,384.2 653.6,384.1 656.4,384.0 659.2,383.9 662.0,384.3 664.8,383.0 667.5,384.1 670.3,383.0 673.1,383.9 675.9,383.5 678.7,383.2 681.5,383.1 684.3,383.0 687.1,382.9 689.9,382.8 692.7,382.7 695.5,382.6 698.3,382.1 701.1,382.3 703.8,382.2 706.6,381.7 709.4,380.9 712.2,381.7 715.0,381.6 717.8,378.3 720.6,380.8 723.4,380.7 726.2,380.5 729.0,380.3 731.8,380.2 734.6,380.0 737.4,380.0 740.2,380.0 742.9,380.0 745.7,379.9 748.5,379.8 751.3,379.3 754.1,379.4 756.9,378.9 759.7,378.9 762.5,378.7 765.3,378.4 768.1,378.5 770.9,378.4 773.7,378.4 776.5,378.3 779.2,378.3 782.0,377.6 784.8,377.9 787.6,377.9 790.4,377.7 793.2,377.6 796.0,377.5 798.8,377.4 801.6,377.5 804.4,376.1 807.2,376.5 810.0,375.5 812.8,376.8 815.5,376.9 818.3,376.9 821.1,375.4 823.9,376.7 826.7,376.6 829.5,376.5 832.3,376.5 835.1,376.4 837.9,376.1 840.7,376.0 843.5,375.9 846.3,375.9 849.1,375.8 851.8,375.7 854.6,375.6 857.4,375.3 860.2,375.2 863.0,375.1 865.8,375.0 868.6,375.1 871.4,374.8 874.2,374.9 877.0,374.8 879.8,374.7 882.6,374.6 885.4,374.6 888.2,374.6 890.9,374.4 893.7,373.9 896.5,374.0 899.3,372.7 902.1,372.8 904.9,373.6 907.7,373.6 910.5,373.6 913.3,373.6 916.1,373.5 918.9,373.4 921.7,373.4 924.5,373.5 927.2,367.8 930.0,367.7 932.8,371.3 935.6,378.5 938.4,377.9 941.2,377.9 944.0,375.2 944.0,391.2 941.2,391.2 938.4,390.5 935.6,391.4 932.8,391.4 930.0,391.3 927.2,387.4 924.5,392.8 921.7,392.9 918.9,393.0 916.1,393.0 913.3,393.0 910.5,393.0 907.7,392.3 904.9,393.2 902.1,393.2 899.3,392.3 896.5,393.4 893.7,389.8 890.9,393.8 888.2,393.7 885.4,393.7 882.6,393.8 879.8,394.1 877.0,393.1 874.2,394.3 871.4,394.4 868.6,394.2 865.8,394.2 863.0,394.2 860.2,394.3 857.4,394.4 854.6,394.7 851.8,394.7 849.1,394.7 846.3,394.7 843.5,394.8 840.7,394.8 837.9,394.9 835.1,394.9 832.3,394.9 829.5,394.5 826.7,395.1 823.9,395.1 821.1,395.2 818.3,395.2 815.5,393.9 812.8,394.0 810.0,395.4 807.2,394.3 804.4,394.3 801.6,395.4 798.8,395.5 796.0,395.6 793.2,395.4 790.4,395.5 787.6,395.6 784.8,395.7 782.0,395.6 779.2,396.0 776.5,395.9 773.7,395.1 770.9,396.1 768.1,396.0 765.3,396.2 762.5,396.2 759.7,394.5 756.9,394.5 754.1,396.0 751.3,396.7 748.5,396.8 745.7,396.8 742.9,396.8 740.2,396.7 737.4,397.2 734.6,397.2 731.8,397.3 729.0,397.3 726.2,397.4 723.4,397.4 720.6,397.4 717.8,396.1 715.0,397.6 712.2,396.3 709.4,397.6 706.6,397.6 703.8,397.6 701.1,397.8 698.3,398.1 695.5,398.1 692.7,398.1 689.9,398.0 687.1,398.0 684.3,398.1 681.5,398.0 678.7,398.3 675.9,398.0 673.1,397.9 670.3,398.6 667.5,398.5 664.8,398.6 662.0,398.3 659.2,398.3 656.4,398.6 653.6,399.0 650.8,399.0 648.0,399.2 645.2,400.1 642.4,400.2 639.6,398.0 636.8,400.0 634.0,399.3 631.2,399.1 628.5,393.1 625.7,393.2 622.9,393.2 620.1,393.3 617.3,393.1 614.5,393.7 611.7,393.5 608.9,394.0 606.1,394.1 603.3,394.2 600.5,394.4 597.7,394.4 594.9,395.2 592.2,395.3 589.4,395.4 586.6,395.5 583.8,395.7 581.0,395.9 578.2,395.9 575.4,395.7 572.6,396.1 569.8,395.7 567.0,396.3 564.2,396.6 561.4,396.8 558.6,396.9 555.8,397.1 553.1,397.7 550.3,397.8 547.5,397.2 544.7,397.7 541.9,397.8 539.1,397.9 536.3,397.7 533.5,397.5 530.7,398.7 527.9,399.3 525.1,399.1 522.3,399.2 519.5,397.4 516.8,399.1 514.0,400.2 511.2,401.0 508.4,401.0 505.6,401.2 502.8,401.3 500.0,401.2 497.2,401.5 494.4,401.6 491.6,401.3 488.8,397.8 486.0,402.1 483.2,402.3 480.5,402.5 477.7,401.4 474.9,402.7 472.1,353.7 469.3,352.3 466.5,352.5 463.7,352.3 460.9,352.8 458.1,352.2 455.3,353.1 452.5,353.2 449.7,351.2 446.9,351.8 444.2,349.7 441.4,346.6 438.6,349.0 435.8,345.6 433.0,345.4 430.2,346.0 427.4,346.9 424.6,347.2 421.8,347.3 419.0,346.8 416.2,345.8 413.4,345.8 410.6,345.9 407.8,346.5 405.1,346.8 402.3,346.9 399.5,347.0 396.7,347.0 393.9,346.8 391.1,345.9 388.3,346.0 385.5,345.8 382.7,345.8 379.9,345.7 377.1,343.7 374.3,345.4 371.5,345.5 368.8,345.3 366.0,396.0 363.2,390.5 360.4,397.4 357.6,393.1 354.8,402.2 352.0,401.6 349.2,400.8 346.4,403.5 343.6,403.5 340.8,403.6 338.0,405.8 335.2,405.6 332.5,403.7 329.7,403.7 326.9,402.7 324.1,410.7 321.3,406.1 318.5,412.8 315.7,412.6 312.9,402.8 310.1,403.9 307.3,402.6 304.5,406.7 301.7,406.4 298.9,405.4 296.2,407.2 293.4,403.4 290.6,406.0 287.8,406.0 285.0,404.2 282.2,409.9 279.4,407.8 276.6,407.4 273.8,407.4 271.0,400.6 268.2,402.6 265.4,402.4 262.6,405.0 259.8,404.9 257.1,407.0 254.3,406.9 251.5,406.7 248.7,406.2 245.9,406.1 243.1,405.9 240.3,407.2 237.5,407.1 234.7,409.5 231.9,409.4 229.1,385.2 226.3,385.9 223.5,385.8 220.8,386.9 218.0,386.9 215.2,386.8 212.4,384.6 209.6,381.8 206.8,381.7 204.0,381.7 201.2,381.8 198.4,384.6 195.6,384.4 192.8,389.8 190.0,387.0 187.2,384.5 184.5,389.1 181.7,388.9 178.9,394.3 176.1,389.0 173.3,394.4 170.5,398.1 167.7,397.8 164.9,404.9 162.1,404.4 159.3,419.7 156.5,419.8 153.7,419.3 150.9,434.5 148.2,434.3 145.4,451.4 142.6,455.0 139.8,455.0 137.0,455.0 134.2,455.0 131.4,455.0 128.6,455.0 125.8,455.0 123.0,455.0 120.2,455.0 117.4,455.0 114.6,455.0 111.8,455.0 109.1,455.0 106.3,455.0 103.5,455.0 100.7,455.1 97.9,455.1 95.1,455.1 92.3,455.1 89.5,455.1 86.7,455.1 83.9,455.1 81.1,455.1 78.3,455.0 75.5,455.0 72.8,452.8 70.0,452.8 67.2,452.8 64.4,452.4 61.6,452.4 58.8,452.4 56.0,452.4" fill="#d6336c" fill-opacity="0.18"/>
<polyline points="56.0,452.0 58.8,452.0 61.6,452.0 64.4,452.3 67.2,452.8 70.0,452.8 72.8,452.8 75.5,454.1 78.3,455.0 81.1,455.0 83.9,455.0 86.7,455.0 89.5,455.0 92.3,455.0 95.1,455.0 97.9,455.0 100.7,455.0 103.5,455.0 106.3,455.0 109.1,455.0 111.8,455.0 114.6,455.0 117.4,455.0 120.2,455.0 123.0,455.0 125.8,455.0 128.6,455.0 131.4,455.0 134.2,455.0 137.0,455.0 139.8,455.0 142.6,455.0 145.4,445.6 148.2,434.1 150.9,434.3 153.7,419.2 156.5,419.7 159.3,402.0 162.1,404.0 164.9,404.2 167.7,395.3 170.5,396.0 173.3,387.4 176.1,387.7 178.9,389.1 181.7,385.7 184.5,385.9 187.2,381.4 190.0,385.3 192.8,385.3 195.6,384.4 198.4,384.4 201.2,371.4 204.0,380.8 206.8,381.0 209.6,381.8 212.4,382.1 215.2,386.8 218.0,386.5 220.8,386.7 223.5,385.5 226.3,385.7 229.1,385.2 231.9,385.4 234.7,385.4 237.5,398.7 240.3,401.4 243.1,401.4 245.9,401.6 248.7,401.6 251.5,400.5 254.3,400.6 257.1,399.6 259.8,399.8 262.6,399.8 265.4,399.8 268.2,400.1 271.0,398.3 273.8,401.5 276.6,401.9 279.4,404.1 282.2,407.8 285.0,403.8 287.8,404.6 290.6,404.6 293.4,403.0 296.2,403.3 298.9,402.7 301.7,404.1 304.5,404.1 307.3,401.7 310.1,402.9 312.9,401.9 315.7,403.9 318.5,403.9 321.3,401.5 324.1,406.5 326.9,398.6 329.7,400.5 332.5,400.9 335.2,404.9 338.0,405.2 340.8,401.7 343.6,403.2 346.4,403.2 349.2,399.5 352.0,399.7 354.8,397.5 357.6,392.4 360.4,395.6 363.2,387.9 366.0,392.5 368.8,338.8 371.5,338.5 374.3,339.5 377.1,338.4 379.9,339.5 382.7,338.7 385.5,338.9 388.3,338.8 391.1,345.0 393.9,344.9 396.7,344.8 399.5,345.0 402.3,344.8 405.1,344.8 407.8,344.2 410.6,344.2 413.4,344.0 416.2,344.7 419.0,344.0 421.8,344.4 424.6,344.4 427.4,343.7 430.2,341.6 433.0,342.7 435.8,341.8 438.6,346.7 441.4,346.6 444.2,347.9 446.9,350.3 449.7,350.9 452.5,352.5 455.3,352.9 458.1,351.9 460.9,352.6 463.7,351.5 466.5,351.4 469.3,351.2 472.1,351.7 474.9,351.6 477.7,351.4 480.5,350.0 483.2,349.9 486.0,350.9 488.8,347.7 491.6,349.9 494.4,349.9 497.2,349.3 500.0,349.3 502.8,349.6 505.6,349.5 508.4,349.4 511.2,349.2 514.0,367.5 516.8,366.3 519.5,366.2 522.3,366.1 525.1,365.9 527.9,366.5 530.7,365.9 533.5,397.3 536.3,396.2 539.1,396.2 541.9,397.4 544.7,397.2 547.5,395.6 550.3,397.1 553.1,397.0 555.8,396.0 558.6,396.8 561.4,396.6 564.2,396.4 567.0,394.8 569.8,395.0 572.6,396.0 575.4,395.7 578.2,395.8 581.0,395.7 583.8,395.6 586.6,394.6 589.4,395.4 592.2,394.2 594.9,395.1 597.7,393.9 600.5,393.0 603.3,392.7 606.1,392.5 608.9,392.3 611.7,392.3 614.5,393.5 617.3,393.0 620.1,393.2 622.9,392.4 625.7,392.4 628.5,392.9 631.2,393.0 634.0,392.9 636.8,392.7 639.6,392.1 642.4,391.8 645.2,391.8 648.0,391.6 650.8,390.6 653.6,390.9 656.4,391.2 659.2,389.9 662.0,390.5 664.8,390.4 667.5,390.3 670.3,389.0 673.1,389.6 675.9,389.4 678.7,389.7 681.5,389.7 684.3,389.6 687.1,389.5 689.9,389.3 692.7,389.2 695.5,389.1 698.3,388.9 701.1,388.5 703.8,389.1 706.6,389.0 709.4,387.5 712.2,388.2 715.0,388.6 717.8,387.9 720.6,388.0 723.4,388.0 726.2,388.0 729.0,387.8 731.8,387.6 734.6,387.6 737.4,387.5 740.2,387.3 742.9,387.2 745.7,387.2 748.5,386.9 751.3,387.0 754.1,386.6 756.9,386.1 759.7,386.0 762.5,385.5 765.3,385.4 768.1,385.3 770.9,385.2 773.7,383.7 776.5,383.6 779.2,384.7 782.0,384.5 784.8,384.8 787.6,384.7 790.4,384.6 793.2,384.5 796.0,384.4 798.8,384.3 801.6,384.3 804.4,382.7 807.2,383.4 810.0,383.8 812.8,381.9 815.5,381.8 818.3,383.5 821.1,383.5 823.9,383.0 826.7,381.8 829.5,383.0 832.3,383.0 835.1,383.0 837.9,382.9 840.7,382.6 843.5,382.5 846.3,382.4 849.1,382.4 851.8,382.3 854.6,381.9 857.4,381.6 860.2,381.5 863.0,381.4 865.8,381.3 868.6,381.2 871.4,381.5 874.2,381.5 877.0,381.3 879.8,380.5 882.6,381.2 885.4,381.1 888.2,381.1 890.9,381.0 893.7,376.7 896.5,380.6 899.3,379.3 902.1,380.3 904.9,379.4 907.7,379.6 910.5,380.1 913.3,380.0 916.1,380.0 918.9,379.9 921.7,379.9 924.5,379.9 927.2,374.1 930.0,378.6 932.8,378.5 935.6,379.3 938.4,378.5 941.2,378.4 944.0,378.3" fill="none" stroke="#d6336c" stroke-width="2"/>
<text x="56" y="524" text-anchor="middle" fill="#59636e">0 min</text>
<text x="223.54716981132077" y="524" text-anchor="middle" fill="#59636e">2 min</text>
<text x="391.09433962264154" y="524" text-anchor="middle" fill="#59636e">4 min</text>
<text x="558.6415094339623" y="524" text-anchor="middle" fill="#59636e">6 min</text>
<text x="726.1886792452831" y="524" text-anchor="middle" fill="#59636e">8 min</text>
<text x="893.7358490566038" y="524" text-anchor="middle" fill="#59636e">10 min</text>
<text x="56" y="546" font-weight="600" fill="#1f2328">All processes</text>
<rect x="57.9742641509434" y="554" width="83.7903396226415" height="190" fill="#f2f4f7"/>
<rect x="351.3270188679245" y="554" width="5.977245283018874" height="190" fill="#f2f4f7"/>
<rect x="779.2815849056603" y="554" width="164.71841509433966" height="190" fill="#f2f4f7"/>
<line x1="56" x2="944" y1="744" y2="744" stroke="#d0d7de" stroke-width="1"/>
<text x="50" y="748" text-anchor="end" fill="#59636e">0</text>
<line x1="56" x2="944" y1="706" y2="706" stroke="#d0d7de" stroke-width="0.5"/>
<text x="50" y="710" text-anchor="end" fill="#59636e">200</text>
<line x1="56" x2="944" y1="668" y2="668" stroke="#d0d7de" stroke-width="0.5"/>
<text x="50" y="672" text-anchor="end" fill="#59636e">400</text>
<line x1="56" x2="944" y1="630" y2="630" stroke="#d0d7de" stroke-width="0.5"/>
<text x="50" y="634" text-anchor="end" fill="#59636e">600</text>
<line x1="56" x2="944" y1="592" y2="592" stroke="#d0d7de" stroke-width="0.5"/>
<text x="50" y="596" text-anchor="end" fill="#59636e">800</text>
<line x1="56" x2="944" y1="554" y2="554" stroke="#d0d7de" stroke-width="0.5"/>
<text x="50" y="558" text-anchor="end" fill="#59636e">1000</text>
<polygon points="56.0,680.9 58.8,680.9 61.6,680.9 64.4,681.9 67.2,682.2 70.0,682.2 72.8,682.2 75.5,682.4 78.3,683.5 81.1,683.6 83.9,683.6 86.7,683.6 89.5,683.6 92.3,683.6 95.1,683.6 97.9,683.6 100.7,683.6 103.5,683.5 106.3,683.5 109.1,683.5 111.8,683.5 114.6,683.5 117.4,683.5 120.2,683.5 123.0,683.5 125.8,683.5 128.6,683.5 131.4,683.5 134.2,683.5 137.0,683.5 139.8,683.5 142.6,683.5 145.4,677.7 148.2,670.2 150.9,670.6 153.7,661.0 156.5,661.4 159.3,650.0 162.1,651.3 164.9,651.6 167.7,645.4 170.5,645.8 173.3,640.6 176.1,640.9 178.9,641.2 181.7,640.1 184.5,640.3 187.2,635.1 190.0,639.5 192.8,639.5 195.6,637.6 198.4,638.0 201.2,630.8 204.0,637.0 206.8,637.1 209.6,636.1 212.4,637.6 215.2,639.1 218.0,639.2 220.8,639.2 223.5,639.3 226.3,639.4 229.1,638.1 231.9,638.2 234.7,638.2 237.5,639.6 240.3,647.7 243.1,648.3 245.9,648.4 248.7,648.4 251.5,647.9 254.3,648.0 257.1,647.3 259.8,647.5 262.6,647.5 265.4,646.4 268.2,646.6 271.0,647.3 273.8,647.4 276.6,647.4 279.4,647.2 282.2,647.2 285.0,645.2 287.8,645.3 290.6,646.0 293.4,645.3 296.2,645.5 298.9,643.4 301.7,644.3 304.5,644.3 307.3,643.1 310.1,643.4 312.9,640.9 315.7,642.5 318.5,642.7 321.3,645.9 324.1,646.2 326.9,642.5 329.7,643.6 332.5,643.6 335.2,643.0 338.0,643.2 340.8,641.2 343.6,643.9 346.4,643.9 349.2,642.6 352.0,642.7 354.8,640.6 357.6,636.5 360.4,639.3 363.2,635.5 366.0,610.9 368.8,591.7 371.5,591.6 374.3,591.5 377.1,590.3 379.9,589.9 382.7,591.7 385.5,591.6 388.3,590.6 391.1,596.6 393.9,596.4 396.7,596.6 399.5,596.3 402.3,596.7 405.1,596.6 407.8,596.5 410.6,592.4 413.4,592.4 416.2,592.2 419.0,591.6 421.8,592.1 424.6,594.8 427.4,595.0 430.2,592.8 433.0,593.4 435.8,592.9 438.6,593.3 441.4,594.3 444.2,595.1 446.9,596.1 449.7,596.1 452.5,596.5 455.3,596.1 458.1,596.6 460.9,596.2 463.7,596.3 466.5,596.3 469.3,596.2 472.1,594.9 474.9,595.8 477.7,595.7 480.5,595.6 483.2,595.5 486.0,595.4 488.8,593.6 491.6,594.7 494.4,594.8 497.2,594.7 500.0,594.7 502.8,594.6 505.6,594.5 508.4,594.4 511.2,594.3 514.0,591.5 516.8,591.4 519.5,590.5 522.3,591.4 525.1,591.4 527.9,591.5 530.7,591.2 533.5,590.6 536.3,590.9 539.1,590.0 541.9,590.6 544.7,590.6 547.5,590.6 550.3,590.5 553.1,590.4 555.8,616.5 558.6,616.4 561.4,616.4 564.2,616.3 567.0,616.1 569.8,615.9 572.6,616.0 575.4,619.8 578.2,619.8 581.0,619.8 583.8,619.3 586.6,619.6 589.4,618.8 592.2,619.3 594.9,619.2 597.7,619.1 600.5,619.0 603.3,618.9 606.1,618.9 608.9,618.8 611.7,618.7 614.5,618.5 617.3,618.5 620.1,618.0 622.9,617.9 625.7,618.2 628.5,618.1 631.2,617.9 634.0,618.0 636.8,617.6 639.6,617.5 642.4,617.5 645.2,617.4 648.0,617.4 650.8,616.8 653.6,616.7 656.4,616.6 659.2,616.6 662.0,616.8 664.8,616.1 667.5,616.7 670.3,616.1 673.1,616.6 675.9,616.4 678.7,616.1 681.5,616.1 684.3,616.0 687.1,615.9 689.9,615.9 692.7,615.8 695.5,615.7 698.3,615.1 701.1,615.2 703.8,615.1 706.6,614.8 709.4,614.3 712.2,614.8 715.0,614.8 717.8,612.8 720.6,614.3 723.4,614.2 726.2,614.1 729.0,614.0 731.8,613.9 734.6,613.8 737.4,613.8 740.2,613.8 742.9,613.8 745.7,613.7 748.5,613.7 751.3,613.4 754.1,613.4 756.9,613.2 759.7,613.1 762.5,612.6 765.3,612.4 768.1,612.5 770.9,612.5 773.7,612.4 776.5,612.4 779.2,612.4 782.0,611.9 784.8,612.1 787.6,612.1 790.4,612.0 793.2,611.9 796.0,611.9 798.8,611.9 801.6,611.9 804.4,611.1 807.2,611.3 810.0,610.7 812.8,611.5 815.5,611.6 818.3,611.5 821.1,610.6 823.9,611.4 826.7,611.4 829.5,611.3 832.3,611.3 835.1,611.2 837.9,611.0 840.7,611.0 843.5,610.9 846.3,610.9 849.1,610.9 851.8,610.8 854.6,610.8 857.4,610.6 860.2,610.5 863.0,610.5 865.8,610.4 868.6,610.5 871.4,610.3 874.2,610.3 877.0,610.3 879.8,610.2 882.6,610.2 885.4,610.2 888.2,610.1 890.9,610.0 893.7,609.8 896.5,609.8 899.3,609.0 902.1,609.1 904.9,609.6 907.7,609.6 910.5,609.6 913.3,609.5 916.1,609.5 918.9,609.5 921.7,609.4 924.5,609.9 927.2,606.5 930.0,606.5 932.8,608.6 935.6,611.5 938.4,611.5 941.2,611.4 944.0,608.9 944.0,620.2 941.2,620.2 938.4,619.8 935.6,620.4 932.8,620.4 930.0,620.3 927.2,617.9 924.5,621.2 921.7,621.2 918.9,621.3 916.1,621.3 913.3,621.3 910.5,621.3 907.7,620.9 904.9,621.4 902.1,621.4 899.3,620.9 896.5,621.5 893.7,619.4 890.9,621.8 888.2,621.7 885.4,621.7 882.6,621.8 879.8,622.0 877.0,621.3 874.2,622.1 871.4,622.2 868.6,622.0 865.8,622.0 863.0,622.0 860.2,622.1 857.4,622.1 854.6,622.3 851.8,622.3 849.1,622.3 846.3,622.3 843.5,622.4 840.7,622.4 837.9,622.4 835.1,622.4 832.3,622.4 829.5,622.2 826.7,622.5 823.9,622.6 821.1,622.6 818.3,622.6 815.5,621.9 812.8,621.9 810.0,622.7 807.2,622.1 804.4,622.1 801.6,622.7 798.8,622.8 796.0,622.8 793.2,622.7 790.4,622.8 787.6,622.9 784.8,622.9 782.0,622.9 779.2,623.1 776.5,623.1 773.7,622.6 770.9,623.1 768.1,623.1 765.3,623.2 762.5,623.2 759.7,623.0 756.9,623.0 754.1,623.9 751.3,624.4 748.5,624.4 745.7,624.4 742.9,624.4 740.2,624.3 737.4,624.7 734.6,624.6 731.8,624.7 729.0,624.7 726.2,624.7 723.4,624.7 720.6,624.8 717.8,624.2 715.0,625.1 712.2,624.3 709.4,625.1 706.6,625.1 703.8,625.1 701.1,625.2 698.3,625.7 695.5,625.8 692.7,625.7 689.9,625.7 687.1,625.7 684.3,625.7 681.5,625.7 678.7,625.8 675.9,625.7 673.1,625.7 670.3,626.0 667.5,626.0 664.8,626.0 662.0,625.8 659.2,625.9 656.4,626.1 653.6,626.3 650.8,626.3 648.0,626.4 645.2,626.9 642.4,627.0 639.6,625.7 636.8,626.9 634.0,626.5 631.2,626.3 628.5,622.6 625.7,622.2 622.9,622.3 620.1,622.8 617.3,622.6 614.5,622.9 611.7,622.4 608.9,622.8 606.1,622.8 603.3,622.9 600.5,623.0 597.7,623.1 594.9,623.9 592.2,624.0 589.4,624.0 586.6,623.7 583.8,624.2 581.0,624.2 578.2,624.3 575.4,624.3 572.6,624.6 569.8,624.1 567.0,624.8 564.2,624.9 561.4,625.0 558.6,625.1 555.8,624.7 553.1,625.2 550.3,625.2 547.5,625.3 544.7,625.3 541.9,625.4 539.1,625.2 536.3,625.1 533.5,626.0 530.7,626.7 527.9,627.1 525.1,626.9 522.3,627.0 519.5,625.9 516.8,626.9 514.0,627.6 511.2,629.8 508.4,629.8 505.6,629.9 502.8,630.0 500.0,629.9 497.2,630.1 494.4,630.1 491.6,630.5 488.8,628.4 486.0,631.0 483.2,631.1 480.5,631.2 477.7,630.6 474.9,631.4 472.1,602.0 469.3,601.2 466.5,600.8 463.7,600.8 460.9,601.4 458.1,601.1 455.3,601.5 452.5,601.3 449.7,600.5 446.9,600.4 444.2,599.2 441.4,597.8 438.6,598.8 435.8,596.7 433.0,596.6 430.2,597.2 427.4,598.8 424.6,599.0 421.8,599.1 419.0,598.8 416.2,598.2 413.4,598.2 410.6,598.2 407.8,601.3 405.1,601.5 402.3,601.6 399.5,601.6 396.7,601.6 393.9,601.5 391.1,601.0 388.3,601.0 385.5,601.4 382.7,601.4 379.9,601.3 377.1,600.1 374.3,601.1 371.5,601.2 368.8,601.1 366.0,643.7 363.2,640.8 360.4,645.2 357.6,642.2 354.8,647.9 352.0,647.9 349.2,647.4 346.4,649.0 343.6,649.0 340.8,648.7 338.0,650.7 335.2,650.5 332.5,649.2 329.7,649.2 326.9,648.5 324.1,653.6 321.3,651.1 318.5,655.4 315.7,655.2 312.9,649.4 310.1,649.6 307.3,649.2 304.5,651.8 301.7,651.6 298.9,651.3 296.2,652.3 293.4,650.0 290.6,652.0 287.8,651.9 285.0,650.9 282.2,654.8 279.4,653.0 276.6,652.8 273.8,652.8 271.0,649.1 268.2,650.6 265.4,650.4 262.6,652.0 259.8,651.9 257.1,653.2 254.3,653.1 251.5,653.0 248.7,652.7 245.9,652.7 243.1,652.5 240.3,653.3 237.5,653.2 234.7,654.7 231.9,654.6 229.1,640.1 226.3,640.4 223.5,640.3 220.8,641.0 218.0,640.9 215.2,641.1 212.4,639.2 209.6,638.0 206.8,637.7 204.0,637.6 201.2,637.9 198.4,639.5 195.6,639.4 192.8,643.1 190.0,641.4 187.2,639.2 184.5,642.0 181.7,641.8 178.9,645.5 176.1,642.1 173.3,646.1 170.5,647.8 167.7,647.6 164.9,651.9 162.1,651.6 159.3,661.8 156.5,661.7 153.7,661.3 150.9,670.9 148.2,670.7 145.4,681.6 142.6,683.7 139.8,683.7 137.0,683.7 134.2,683.7 131.4,683.7 128.6,683.7 125.8,683.7 123.0,683.7 120.2,683.7 117.4,683.7 114.6,683.7 111.8,683.7 109.1,683.7 106.3,683.7 103.5,683.7 100.7,683.8 97.9,683.8 95.1,683.8 92.3,683.8 89.5,683.8 86.7,683.8 83.9,683.8 81.1,683.8 78.3,683.8 75.5,683.8 72.8,682.5 70.0,682.5 67.2,682.5 64.4,682.2 61.6,682.2 58.8,682.2 56.0,682.2" fill="#d6336c" fill-opacity="0.18"/>
<polyline points="56.0,682.0 58.8,682.0 61.6,682.0 64.4,682.2 67.2,682.4 70.0,682.4 72.8,682.4 75.5,683.3 78.3,683.8 81.1,683.8 83.9,683.8 86.7,683.8 89.5,683.8 92.3,683.8 95.1,683.8 97.9,683.8 100.7,683.8 103.5,683.7 106.3,683.7 109.1,683.7 111.8,683.7 114.6,683.7 117.4,683.7 120.2,683.7 123.0,683.7 125.8,683.7 128.6,683.7 131.4,683.7 134.2,683.7 137.0,683.7 139.8,683.7 142.6,683.7 145.4,677.8 148.2,670.6 150.9,670.8 153.7,661.3 156.5,661.7 159.3,650.1 162.1,651.5 164.9,651.6 167.7,646.2 170.5,646.6 173.3,641.1 176.1,641.5 178.9,642.2 181.7,640.1 184.5,640.8 187.2,638.0 190.0,639.7 192.8,639.7 195.6,639.1 198.4,639.1 201.2,631.4 204.0,637.4 206.8,637.6 209.6,637.4 212.4,638.1 215.2,640.5 218.0,640.6 220.8,640.6 223.5,640.0 226.3,640.1 229.1,639.6 231.9,639.8 234.7,639.8 237.5,647.7 240.3,649.3 243.1,649.3 245.9,649.5 248.7,649.5 251.5,648.8 254.3,648.9 257.1,648.3 259.8,648.4 262.6,648.4 265.4,648.4 268.2,648.6 271.0,647.4 273.8,649.7 276.6,650.0 279.4,651.3 282.2,653.0 285.0,650.3 287.8,650.8 290.6,650.8 293.4,649.8 296.2,650.0 298.9,649.4 301.7,650.2 304.5,650.3 307.3,648.2 310.1,649.5 312.9,648.4 315.7,649.6 318.5,649.6 321.3,648.1 324.1,651.3 326.9,646.3 329.7,647.5 332.5,647.8 335.2,649.9 338.0,650.1 340.8,647.9 343.6,648.5 346.4,648.6 349.2,646.3 352.0,646.5 354.8,645.4 357.6,642.1 360.4,643.7 363.2,638.9 366.0,641.5 368.8,596.5 371.5,596.3 374.3,596.9 377.1,596.3 379.9,596.9 382.7,596.5 385.5,596.6 388.3,596.1 391.1,599.8 393.9,599.7 396.7,599.7 399.5,599.8 402.3,599.6 405.1,599.6 407.8,599.3 410.6,596.9 413.4,596.8 416.2,597.2 419.0,596.8 421.8,597.0 424.6,597.0 427.4,596.6 430.2,595.0 433.0,595.5 435.8,594.9 438.6,597.8 441.4,597.3 444.2,598.6 446.9,600.0 449.7,599.9 452.5,601.2 455.3,601.1 458.1,600.4 460.9,600.9 463.7,600.7 466.5,600.7 469.3,600.0 472.1,600.3 474.9,600.2 477.7,600.1 480.5,599.3 483.2,599.2 486.0,599.8 488.8,597.9 491.6,599.2 494.4,599.0 497.2,598.6 500.0,598.6 502.8,598.8 505.6,598.7 508.4,598.7 511.2,598.6 514.0,607.7 516.8,607.0 519.5,606.9 522.3,606.9 525.1,606.8 527.9,607.1 530.7,606.8 533.5,625.4 536.3,624.7 539.1,624.7 541.9,625.1 544.7,625.1 547.5,623.8 550.3,625.1 553.1,625.1 555.8,624.7 558.6,624.7 561.4,624.6 564.2,624.5 567.0,623.4 569.8,623.9 572.6,624.2 575.4,623.7 578.2,623.9 581.0,623.9 583.8,623.8 586.6,623.6 589.4,623.6 592.2,622.8 594.9,623.5 597.7,623.0 600.5,622.6 603.3,622.4 606.1,622.3 608.9,622.2 611.7,622.2 614.5,622.5 617.3,622.0 620.1,622.0 622.9,622.1 625.7,622.1 628.5,622.0 631.2,621.9 634.0,621.9 636.8,621.8 639.6,621.4 642.4,621.2 645.2,621.2 648.0,621.1 650.8,620.5 653.6,620.7 656.4,620.8 659.2,619.9 662.0,620.3 664.8,620.2 667.5,620.1 670.3,619.3 673.1,619.7 675.9,619.6 678.7,619.8 681.5,619.8 684.3,619.7 687.1,619.7 689.9,619.6 692.7,619.5 695.5,619.4 698.3,619.3 701.1,619.1 703.8,619.4 706.6,619.3 709.4,618.4 712.2,618.9 715.0,619.1 717.8,618.7 720.6,617.4 723.4,617.4 726.2,617.4 729.0,617.3 731.8,617.2 734.6,617.2 737.4,617.1 740.2,617.0 742.9,616.9 745.7,616.9 748.5,616.7 751.3,616.7 754.1,616.5 756.9,616.2 759.7,616.2 762.5,615.8 765.3,615.8 768.1,615.7 770.9,615.7 773.7,614.8 776.5,614.7 779.2,615.4 782.0,615.2 784.8,615.2 787.6,615.2 790.4,615.1 793.2,615.1 796.0,615.0 798.8,615.0 801.6,614.9 804.4,614.0 807.2,614.4 810.0,614.7 812.8,613.5 815.5,613.5 818.3,614.5 821.1,614.5 823.9,614.2 826.7,613.4 829.5,614.2 832.3,614.2 835.1,614.2 837.9,614.1 840.7,613.9 843.5,613.9 846.3,613.8 849.1,613.8 851.8,613.8 854.6,613.5 857.4,613.4 860.2,613.3 863.0,613.2 865.8,613.2 868.6,613.1 871.4,613.3 874.2,613.3 877.0,613.2 879.8,612.6 882.6,613.1 885.4,613.0 888.2,613.0 890.9,613.0 893.7,610.4 896.5,612.7 899.3,612.0 902.1,612.6 904.9,612.0 907.7,612.1 910.5,612.4 913.3,612.4 916.1,612.4 918.9,612.3 921.7,612.3 924.5,612.3 927.2,608.8 930.0,611.5 932.8,611.5 935.6,613.4 938.4,612.6 941.2,612.6 944.0,611.4" fill="none" stroke="#d6336c" stroke-width="2"/>
<text x="56" y="760" text-anchor="middle" fill="#59636e">0 min</text>
<text x="223.54716981132077" y="760" text-anchor="middle" fill="#59636e">2 min</text>
<text x="391.09433962264154" y="760" text-anchor="middle" fill="#59636e">4 min</text>
<text x="558.6415094339623" y="760" text-anchor="middle" fill="#59636e">6 min</text>
<text x="726.1886792452831" y="760" text-anchor="middle" fill="#59636e">8 min</text>
<text x="893.7358490566038" y="760" text-anchor="middle" fill="#59636e">10 min</text>
</svg>
